<?xml version="1.0" encoding="UTF-8"?>
<svg version="1.1" xmlns="http://www.w3.org/2000/svg" width="500" height="220">
<path d="M0 0 C0 39.27 0 78.54 0 119 C-13.2 119 -26.4 119 -40 119 C-40 116.36 -40 113.72 -40 111 C-29.44 111 -18.88 111 -8 111 C-8 77.01 -8 43.02 -8 8 C-8.66 8.33 -9.32 8.66 -10 9 C-12.02103411 9.19490056 -14.04276941 9.38431266 -16.06689453 9.54394531 C-68.87088443 13.79729208 -117.32872604 38.70362023 -152.60546875 78.140625 C-156.00746971 82.20304703 -159.11627874 86.44555601 -162.1875 90.76171875 C-162.785625 91.50035156 -163.38375 92.23898438 -164 93 C-164.66 93 -165.32 93 -166 93 C-167.61075808 89.4764667 -168.42573907 86.87192425 -168 83 C-165.48717666 78.97150544 -162.16433516 75.53061137 -159 72 C-158.22052002 71.11997314 -158.22052002 71.11997314 -157.42529297 70.22216797 C-120.12736635 28.32692654 -68.95872857 4.50554151 -13.29296875 0.1484375 C-8.86619811 -0.05110851 -4.43126583 0 0 0 Z " fill="#FFFFFF" transform="translate(241,70)"/>
<path d="M0 0 C8.21259139 11.1891126 9.55136375 28.83793779 7.70703125 42.10791016 C5.16807019 57.21541097 -1.04719234 69.17736154 -12 80 C-12.68707031 80.70898438 -13.37414062 81.41796875 -14.08203125 82.1484375 C-27.07410281 94.73074057 -43.35311326 98.50210916 -60.92578125 98.34960938 C-78.13612843 97.91405339 -93.74647603 91.27621568 -106 79 C-107.296875 76.73046875 -107.296875 76.73046875 -108 75 C-90.53943538 51.07255959 -70.97801213 30.75879764 -45 16 C-43.87851563 15.34644531 -42.75703125 14.69289063 -41.6015625 14.01953125 C-10.4090095 -3.68862958 -10.4090095 -3.68862958 0 0 Z M-60 36 C-60.53786133 36.42361816 -61.07572266 36.84723633 -61.62988281 37.28369141 C-74.87931866 47.85065299 -87.56958061 59.83264184 -97 74 C-97 74.66 -97 75.32 -97 76 C-83.28517209 87.8108171 -67.93507684 90.98938577 -50.41015625 90.19970703 C-36.74136732 89.06710276 -24.61866764 81.35533236 -15 72 C-3.81425097 58.78834906 1.37203846 43.27685267 0 26 C-1.06503704 20.05081233 -2.29067114 13.41865772 -5 8 C-22.68732012 8 -46.52278207 25.36671036 -60 36 Z " fill="#FFFFFF" transform="translate(194,104)"/>
<path d="M0 0 C25.75291242 1.17058693 25.75291242 1.17058693 34.5625 2.6875 C35.59785889 2.86120117 36.63321777 3.03490234 37.69995117 3.21386719 C58.94808923 6.96631211 80.45886909 13.77326018 99 25 C97.06745228 27.0245738 95.36841312 28.42105792 93 30 C88.16933519 29.67561779 83.80344561 27.25212575 79.4375 25.3125 C56.27298839 15.3358718 33.21180889 11.40112466 8 9 C8 42.66 8 76.32 8 111 C18.56 111 29.12 111 40 111 C40 113.64 40 116.28 40 119 C26.8 119 13.6 119 0 119 C0 79.73 0 40.46 0 0 Z " fill="#FFFFFF" transform="translate(31,70)"/>
<path d="M0 0 C7.17955441 3.82998534 11.71473839 9.08675254 14.40234375 16.765625 C16.48389526 25.190366 15.39688721 32.92285236 11.0625 40.4375 C6.96608695 45.97720885 1.7650058 49.73912749 -4.9375 51.4375 C-14.30190604 52.44862605 -22.04799843 51.6023695 -29.625 45.875 C-35.31742922 40.61243386 -38.55588981 33.36756322 -39.00390625 25.65625 C-38.78470739 18.33242919 -36.66881057 12.08416463 -31.9375 6.4375 C-23.01707226 -1.70645326 -11.62282418 -4.66113259 0 0 Z M-27.92578125 14.609375 C-30.32197459 18.9391761 -31.39877643 23.74592827 -30.55859375 28.6484375 C-28.60524976 34.47498359 -25.30593896 38.78510073 -20.25 42.3125 C-14.56808269 44.24220777 -9.28035684 44.27739208 -3.625 42.25 C1.43358263 38.83839776 4.95000516 35.21906481 7.0625 29.4375 C7.90069041 23.93815318 7.28819076 19.1518608 4.5078125 14.30078125 C1.04160342 9.83218197 -3.12705936 6.94992256 -8.72265625 5.9296875 C-16.86807062 5.59356311 -22.83042653 7.90585184 -27.92578125 14.609375 Z " fill="#FFFFFF" transform="translate(147.9375,32.5625)"/>
<path d="M0 0 C7.06011891 -0.23062359 13.63064718 0.36486918 20.5625 1.6875 C21.51560059 1.86611572 22.46870117 2.04473145 23.45068359 2.22875977 C36.50582832 4.76841215 48.86873781 8.50703928 61 14 C61 17 61 17 59.0625 19.375 C56 21 56 21 54.08374023 20.60791016 C53.37419189 20.33769043 52.66464355 20.0674707 51.93359375 19.7890625 C35.13042337 13.69394462 17.80822616 9.61892965 0 8 C0 5.36 0 2.72 0 0 Z " fill="#FFFFFF" transform="translate(44,97)"/>
<path d="M0 0 C0 -0.99 0 -1.98 0 -3 C0.66 -3 1.32 -3 2 -3 C2 1.29 2 5.58 2 10 C1.34 10 0.68 10 0 10 C-0.26554687 9.43410156 -0.53109375 8.86820313 -0.8046875 8.28515625 C-1.15789062 7.55167969 -1.51109375 6.81820312 -1.875 6.0625 C-2.22304688 5.33160156 -2.57109375 4.60070312 -2.9296875 3.84765625 C-3.8684977 1.83667541 -3.8684977 1.83667541 -6 1 C-7.81041793 0.90367103 -9.62452753 0.87018467 -11.4375 0.875 C-12.40558594 0.87242188 -13.37367188 0.86984375 -14.37109375 0.8671875 C-17.11017829 0.88786027 -17.11017829 0.88786027 -20 2 C-20.0825 3.2375 -20.165 4.475 -20.25 5.75 C-20.29640625 6.44609375 -20.3428125 7.1421875 -20.390625 7.859375 C-19.81103755 11.03551424 -18.51774385 11.99293061 -16 14 C-12.70834935 15.83345123 -9.27511582 17.36115689 -5.84375 18.91210938 C-1.50060341 20.96619083 1.42310675 22.76419074 4 27 C4.93969796 30.72638846 4.80978624 34.37353573 3.08203125 37.84375 C0.27497766 41.55015086 -2.51622139 43.12082772 -7 44 C-13.93031794 44.55002523 -17.83032157 43.08483921 -24 40 C-24 40.99 -24 41.98 -24 43 C-24.99 43 -25.98 43 -27 43 C-27 39.04 -27 35.08 -27 31 C-24 32 -24 32 -22.625 34.375 C-20.64431865 37.57456217 -19.49671969 38.58643246 -16 40 C-11.62578497 40.51837289 -7.64804224 40.9630299 -3.75390625 38.6875 C-1.69247428 36.98217644 -1.69247428 36.98217644 -1 33.625 C-1 29.05929562 -1.8219007 28.21237772 -5 25 C-7.75324445 23.24741404 -10.63312567 21.80878659 -13.5625 20.375 C-15.08720551 19.61712791 -16.60944864 18.85427701 -18.12890625 18.0859375 C-18.79994385 17.7564209 -19.47098145 17.4269043 -20.16235352 17.08740234 C-22.16408924 15.90290242 -23.53008332 14.80479634 -25 13 C-25.95836483 8.75581289 -26.4540956 6.27714388 -25 2.1875 C-17.85890818 -5.62306918 -8.56529203 -3.67083944 0 0 Z " fill="#FFFFFF" transform="translate(294,75)"/>
<path d="M0 0 C10.89 0 21.78 0 33 0 C33 3.3 33 6.6 33 10 C32.34 10 31.68 10 31 10 C30.01 7.69 29.02 5.38 28 3 C22.06 2.67 16.12 2.34 10 2 C10 8.6 10 15.2 10 22 C13.96 21.67 17.92 21.34 22 21 C22.66 19.02 23.32 17.04 24 15 C24.66 15 25.32 15 26 15 C26 19.95 26 24.9 26 30 C25.34 30 24.68 30 24 30 C23.34 28.35 22.68 26.7 22 25 C18.04 24.67 14.08 24.34 10 24 C10.33 29.94 10.66 35.88 11 42 C12.65 42.33 14.3 42.66 16 43 C16 43.66 16 44.32 16 45 C10.72 45 5.44 45 0 45 C0 44.34 0 43.68 0 43 C1.98 42.505 1.98 42.505 4 42 C4.33 28.8 4.66 15.6 5 2 C3.35 1.67 1.7 1.34 0 1 C0 0.67 0 0.34 0 0 Z " fill="#FFFFFF" transform="translate(266,144)"/>
<path d="M0 0 C1.62231445 1.2277832 1.62231445 1.2277832 3 3 C3.34057617 5.54370117 3.34057617 5.54370117 3.29296875 8.54296875 C3.28330078 9.61611328 3.27363281 10.68925781 3.26367188 11.79492188 C3.23853516 12.91447266 3.21339844 14.03402344 3.1875 15.1875 C3.16719727 16.88422852 3.16719727 16.88422852 3.14648438 18.61523438 C3.11109958 21.41063317 3.06172948 24.20507892 3 27 C4.32 27.33 5.64 27.66 7 28 C4 30 4 30 1.375 29.75 C0.59125 29.5025 -0.1925 29.255 -1 29 C-1.33 28.34 -1.66 27.68 -2 27 C-3.19625 27.495 -4.3925 27.99 -5.625 28.5 C-10.08218457 30.16160061 -13.74216263 30.85431684 -18.3125 29.125 C-20 28 -20 28 -21 26 C-21.3844386 22.54005262 -21.25355473 20.50710946 -19.6875 17.375 C-14.56030796 12.84399308 -7.82350496 10.66563587 -1 11 C-1.28151087 9.68528432 -1.57553339 8.37324233 -1.875 7.0625 C-2.03742188 6.33160156 -2.19984375 5.60070312 -2.3671875 4.84765625 C-2.82961523 2.79299706 -2.82961523 2.79299706 -5 2 C-6.91403076 1.80331266 -6.91403076 1.80331266 -9 1.8125 C-9.70125 1.79832031 -10.4025 1.78414062 -11.125 1.76953125 C-13.24524938 1.83487677 -13.24524938 1.83487677 -15 4 C-15.33 4.99 -15.66 5.98 -16 7 C-17.32 7 -18.64 7 -20 7 C-19.9375 4.1875 -19.9375 4.1875 -19 1 C-12.8792938 -2.67242372 -6.50551897 -3.43346835 0 0 Z M-8.4375 14.75 C-9.40558594 15.07484375 -10.37367188 15.3996875 -11.37109375 15.734375 C-14.26034136 17.12533522 -15.44214801 18.22156295 -17 21 C-16.76554071 24.32350454 -16.76554071 24.32350454 -15 27 C-10.53175125 27.45439818 -7.27635289 27.68521764 -3.5 25.0625 C-0.45604471 21.33365477 -0.47094743 19.43593391 -0.7890625 14.79296875 C-0.85867188 14.20128906 -0.92828125 13.60960937 -1 13 C-3.72638975 13 -5.8618296 13.8606583 -8.4375 14.75 Z " fill="#FFFFFF" transform="translate(398,160)"/>
<path d="M0 0 C1.62231445 1.2277832 1.62231445 1.2277832 3 3 C3.34057617 5.54370117 3.34057617 5.54370117 3.29296875 8.54296875 C3.28330078 9.61611328 3.27363281 10.68925781 3.26367188 11.79492188 C3.23853516 12.91447266 3.21339844 14.03402344 3.1875 15.1875 C3.16719727 16.88422852 3.16719727 16.88422852 3.14648438 18.61523438 C3.11109958 21.41063317 3.06172948 24.20507892 3 27 C4.32 27.33 5.64 27.66 7 28 C4 30 4 30 1.375 29.75 C0.59125 29.5025 -0.1925 29.255 -1 29 C-1.33 28.34 -1.66 27.68 -2 27 C-3.19625 27.495 -4.3925 27.99 -5.625 28.5 C-10.08218457 30.16160061 -13.74216263 30.85431684 -18.3125 29.125 C-20 28 -20 28 -21 26 C-21.3844386 22.54005262 -21.25355473 20.50710946 -19.6875 17.375 C-14.56030796 12.84399308 -7.82350496 10.66563587 -1 11 C-1.28151087 9.68528432 -1.57553339 8.37324233 -1.875 7.0625 C-2.03742188 6.33160156 -2.19984375 5.60070312 -2.3671875 4.84765625 C-2.82961523 2.79299706 -2.82961523 2.79299706 -5 2 C-6.91403076 1.80331266 -6.91403076 1.80331266 -9 1.8125 C-9.70125 1.79832031 -10.4025 1.78414063 -11.125 1.76953125 C-13.24524938 1.83487677 -13.24524938 1.83487677 -15 4 C-15.33 4.99 -15.66 5.98 -16 7 C-17.32 7 -18.64 7 -20 7 C-19.9375 4.1875 -19.9375 4.1875 -19 1 C-12.8792938 -2.67242372 -6.50551897 -3.43346835 0 0 Z M-8.4375 14.75 C-9.40558594 15.07484375 -10.37367188 15.3996875 -11.37109375 15.734375 C-14.26034136 17.12533522 -15.44214801 18.22156295 -17 21 C-16.76554071 24.32350454 -16.76554071 24.32350454 -15 27 C-10.53175125 27.45439818 -7.27635289 27.68521764 -3.5 25.0625 C-0.45604471 21.33365477 -0.47094743 19.43593391 -0.7890625 14.79296875 C-0.85867188 14.20128906 -0.92828125 13.60960938 -1 13 C-3.72638975 13 -5.8618296 13.8606583 -8.4375 14.75 Z " fill="#FFFFFF" transform="translate(442,89)"/>
<path d="M0 0 C5.65116279 2.30232558 5.65116279 2.30232558 7 5 C7.08471364 6.81341842 7.10721083 8.62994161 7.09765625 10.4453125 C7.09443359 11.52167969 7.09121094 12.59804687 7.08789062 13.70703125 C7.07951172 14.83496094 7.07113281 15.96289062 7.0625 17.125 C7.05798828 18.26066406 7.05347656 19.39632812 7.04882812 20.56640625 C7.03701615 23.37765638 7.02054507 26.1888023 7 29 C8.65 29.33 10.3 29.66 12 30 C12 30.33 12 30.66 12 31 C7.71 31 3.42 31 -1 31 C0.32 30.34 1.64 29.68 3 29 C2.89047884 25.20771856 2.75976759 21.4164616 2.625 17.625 C2.5940625 16.54476562 2.563125 15.46453125 2.53125 14.3515625 C2.49257813 13.3203125 2.45390625 12.2890625 2.4140625 11.2265625 C2.36693115 9.79691162 2.36693115 9.79691162 2.31884766 8.33837891 C2.21444204 5.81104824 2.21444204 5.81104824 0 4 C-5.7391276 3.26619705 -5.7391276 3.26619705 -10.7109375 5.8828125 C-13.94208477 10.28290725 -13.77859179 13.98137626 -13.8125 19.3125 C-13.83763672 20.24384766 -13.86277344 21.17519531 -13.88867188 22.13476562 C-13.94735998 24.42360186 -13.98377168 26.71053426 -14 29 C-12.68 29.66 -11.36 30.32 -10 31 C-14.29 31 -18.58 31 -23 31 C-20 29 -20 29 -18 29 C-18 20.75 -18 12.5 -18 4 C-19.32 4.33 -20.64 4.66 -22 5 C-21.67 4.01 -21.34 3.02 -21 2 C-17.535 1.505 -17.535 1.505 -14 1 C-13.67 1.66 -13.34 2.32 -13 3 C-11.7315625 2.2575 -11.7315625 2.2575 -10.4375 1.5 C-6.53927904 -0.20104187 -4.21193707 -0.45127897 0 0 Z " fill="#FFFFFF" transform="translate(406,87)"/>
<path d="M0 0 C2.8085307 1.78724681 4.20583558 2.82421478 5.75 5.75 C6.08 8.06 6.41 10.37 6.75 12.75 C-1.17 12.75 -9.09 12.75 -17.25 12.75 C-16.01950491 21.78873535 -16.01950491 21.78873535 -13.6875 25.375 C-9.94615637 27.48550153 -6.43806863 27.52128336 -2.25 26.75 C0.79456257 24.5641602 2.28476111 22.16889073 3.75 18.75 C4.41 18.75 5.07 18.75 5.75 18.75 C5.47301826 22.72007156 4.98315777 24.47389212 2.375 27.5625 C-1.75427929 31.00356607 -4.99749931 31.10016671 -10.25 30.75 C-14.58409104 29.42773494 -18.220251 27.95913574 -20.58984375 23.88671875 C-22.34529617 18.20486979 -22.34529617 11.29513021 -20.58984375 5.61328125 C-16.34950185 -1.67423274 -7.23102866 -2.78116487 0 0 Z M-16.25 6.75 C-16.58 8.07 -16.91 9.39 -17.25 10.75 C-10.65 10.75 -4.05 10.75 2.75 10.75 C1.26387911 5.23193136 1.26387911 5.23193136 -2.25 1.75 C-8.42756175 0.36178388 -12.45708774 1.53474564 -16.25 6.75 Z " fill="#FFFFFF" transform="translate(323.25,159.25)"/>
<path d="M0 0 C2.8085307 1.78724681 4.20583558 2.82421478 5.75 5.75 C6.08 8.06 6.41 10.37 6.75 12.75 C-1.17 12.75 -9.09 12.75 -17.25 12.75 C-16.01950491 21.78873535 -16.01950491 21.78873535 -13.6875 25.375 C-9.94615637 27.48550153 -6.43806863 27.52128336 -2.25 26.75 C0.79456257 24.5641602 2.28476111 22.16889073 3.75 18.75 C4.41 18.75 5.07 18.75 5.75 18.75 C5.47301826 22.72007156 4.98315777 24.47389212 2.375 27.5625 C-1.75427929 31.00356607 -4.99749931 31.10016671 -10.25 30.75 C-14.58409104 29.42773494 -18.220251 27.95913574 -20.58984375 23.88671875 C-22.34529617 18.20486979 -22.34529617 11.29513021 -20.58984375 5.61328125 C-16.34950185 -1.67423274 -7.23102866 -2.78116487 0 0 Z M-16.25 6.75 C-16.58 8.07 -16.91 9.39 -17.25 10.75 C-10.65 10.75 -4.05 10.75 2.75 10.75 C1.26387911 5.23193136 1.26387911 5.23193136 -2.25 1.75 C-8.42756175 0.36178388 -12.45708774 1.53474564 -16.25 6.75 Z " fill="#FFFFFF" transform="translate(374.25,88.25)"/>
<path d="M0 0 C2.8085307 1.78724681 4.20583558 2.82421478 5.75 5.75 C6.08 8.06 6.41 10.37 6.75 12.75 C-1.17 12.75 -9.09 12.75 -17.25 12.75 C-16.01950491 21.78873535 -16.01950491 21.78873535 -13.6875 25.375 C-9.94615637 27.48550153 -6.43806863 27.52128336 -2.25 26.75 C0.79456257 24.5641602 2.28476111 22.16889073 3.75 18.75 C4.41 18.75 5.07 18.75 5.75 18.75 C5.47301826 22.72007156 4.98315777 24.47389212 2.375 27.5625 C-1.75427929 31.00356607 -4.99749931 31.10016671 -10.25 30.75 C-14.58409104 29.42773494 -18.220251 27.95913574 -20.58984375 23.88671875 C-22.34529617 18.20486979 -22.34529617 11.29513021 -20.58984375 5.61328125 C-16.34950185 -1.67423274 -7.23102866 -2.78116487 0 0 Z M-16.25 6.75 C-16.58 8.07 -16.91 9.39 -17.25 10.75 C-10.65 10.75 -4.05 10.75 2.75 10.75 C1.26387911 5.23193136 1.26387911 5.23193136 -2.25 1.75 C-8.42756175 0.36178388 -12.45708774 1.53474564 -16.25 6.75 Z " fill="#FFFFFF" transform="translate(323.25,88.25)"/>
<path d="M0 0 C0.87785156 0.09023437 1.75570313 0.18046875 2.66015625 0.2734375 C4.9375 0.625 4.9375 0.625 6.9375 1.625 C7.2675 0.965 7.5975 0.305 7.9375 -0.375 C8.5975 -0.375 9.2575 -0.375 9.9375 -0.375 C9.9375 2.925 9.9375 6.225 9.9375 9.625 C6.9375 8.625 6.9375 8.625 5.875 6.625 C5.4109375 5.635 5.4109375 5.635 4.9375 4.625 C2.41274538 3.36262269 0.62549534 3.52643596 -2.1875 3.5625 C-3.09757812 3.57152344 -4.00765625 3.58054688 -4.9453125 3.58984375 C-5.64398438 3.60144531 -6.34265625 3.61304688 -7.0625 3.625 C-7.0625 5.935 -7.0625 8.245 -7.0625 10.625 C-6.423125 10.8725 -5.78375 11.12 -5.125 11.375 C-2.55580559 12.42365078 0.00937471 13.47544339 2.5625 14.5625 C3.31789063 14.88089844 4.07328125 15.19929687 4.8515625 15.52734375 C8.26018545 17.32101987 9.66893589 18.85287818 10.9375 22.5 C10.9375 25.625 10.9375 25.625 8.6875 28.4375 C4.43416809 31.8208322 1.25569005 31.89541644 -4.0625 31.625 C-7.5 30.625 -7.5 30.625 -10.0625 29.625 C-10.3925 30.285 -10.7225 30.945 -11.0625 31.625 C-11.7225 31.625 -12.3825 31.625 -13.0625 31.625 C-13.0625 27.995 -13.0625 24.365 -13.0625 20.625 C-9.30641399 21.87702867 -8.91565035 23.25563573 -7.0625 26.625 C-6.06192021 27.84511391 -6.06192021 27.84511391 -4.06640625 27.7578125 C-2.85791016 27.75394531 -2.85791016 27.75394531 -1.625 27.75 C-0.82191406 27.75257813 -0.01882813 27.75515625 0.80859375 27.7578125 C2.99147931 27.76078326 2.99147931 27.76078326 4.9375 26.625 C5.59522428 23.59565509 5.59522428 23.59565509 5.9375 20.625 C5.15375 20.398125 4.37 20.17125 3.5625 19.9375 C-8.85037879 15.44318182 -8.85037879 15.44318182 -12.0625 10.625 C-12.4375 7.6875 -12.4375 7.6875 -12.0625 4.625 C-8.53392691 0.12302744 -5.51692027 -0.60125493 0 0 Z " fill="#FFFFFF" transform="translate(459.0625,158.375)"/>
<path d="M0 0 C0 0.99 0 1.98 0 3 C-2.01822917 2.90234375 -4.03645833 2.8046875 -6.0546875 2.70703125 C-7.01761719 2.85205078 -7.01761719 2.85205078 -8 3 C-10.98978117 7.48467176 -10.32924419 11.78808074 -10.3125 17.0625 C-10.32861328 18.08150391 -10.34472656 19.10050781 -10.36132812 20.15039062 C-10.36229492 21.60928711 -10.36229492 21.60928711 -10.36328125 23.09765625 C-10.36626221 23.98976807 -10.36924316 24.88187988 -10.37231445 25.80102539 C-10.24945068 26.52668701 -10.12658691 27.25234863 -10 28 C-9.01 28.66 -8.02 29.32 -7 30 C-11.29 30 -15.58 30 -20 30 C-18.68 29.01 -17.36 28.02 -16 27 C-15.35836328 24.40094589 -15.35836328 24.40094589 -15.390625 21.45703125 C-15.35839844 20.38388672 -15.32617188 19.31074219 -15.29296875 18.20507812 C-15.27169922 16.52575195 -15.27169922 16.52575195 -15.25 14.8125 C-15.22035156 13.68134766 -15.19070313 12.55019531 -15.16015625 11.38476562 C-15.08939691 8.58977167 -15.03673024 5.79561472 -15 3 C-16.32 3.33 -17.64 3.66 -19 4 C-18.67 3.01 -18.34 2.02 -18 1 C-11.25 0 -11.25 0 -9 0 C-5.93109813 -1.53445094 -3.29905734 -0.54984289 0 0 Z " fill="#FFFFFF" transform="translate(427,159)"/>
<path d="M0 0 C0 0.99 0 1.98 0 3 C-2.01822917 2.90234375 -4.03645833 2.8046875 -6.0546875 2.70703125 C-7.01761719 2.85205078 -7.01761719 2.85205078 -8 3 C-10.98978117 7.48467176 -10.32924419 11.78808074 -10.3125 17.0625 C-10.32861328 18.08150391 -10.34472656 19.10050781 -10.36132812 20.15039062 C-10.36229492 21.60928711 -10.36229492 21.60928711 -10.36328125 23.09765625 C-10.36626221 23.98976807 -10.36924316 24.88187988 -10.37231445 25.80102539 C-10.24945068 26.52668701 -10.12658691 27.25234863 -10 28 C-9.01 28.66 -8.02 29.32 -7 30 C-11.29 30 -15.58 30 -20 30 C-18.68 29.01 -17.36 28.02 -16 27 C-15.35836328 24.40094589 -15.35836328 24.40094589 -15.390625 21.45703125 C-15.35839844 20.38388672 -15.32617188 19.31074219 -15.29296875 18.20507812 C-15.27169922 16.52575195 -15.27169922 16.52575195 -15.25 14.8125 C-15.22035156 13.68134766 -15.19070313 12.55019531 -15.16015625 11.38476562 C-15.08939691 8.58977167 -15.03673024 5.79561472 -15 3 C-16.32 3.33 -17.64 3.66 -19 4 C-18.67 3.01 -18.34 2.02 -18 1 C-11.25 0 -11.25 0 -9 0 C-5.93109813 -1.53445094 -3.29905734 -0.54984289 0 0 Z " fill="#FFFFFF" transform="translate(375,159)"/>
<path d="M0 0 C0 0.99 0 1.98 0 3 C-2.01822917 2.90234375 -4.03645833 2.8046875 -6.0546875 2.70703125 C-7.01761719 2.85205078 -7.01761719 2.85205078 -8 3 C-10.98978117 7.48467176 -10.32924419 11.78808074 -10.3125 17.0625 C-10.32861328 18.08150391 -10.34472656 19.10050781 -10.36132812 20.15039062 C-10.36229492 21.60928711 -10.36229492 21.60928711 -10.36328125 23.09765625 C-10.36626221 23.98976807 -10.36924316 24.88187988 -10.37231445 25.80102539 C-10.24945068 26.52668701 -10.12658691 27.25234863 -10 28 C-9.01 28.66 -8.02 29.32 -7 30 C-11.29 30 -15.58 30 -20 30 C-18.68 29.01 -17.36 28.02 -16 27 C-15.35836328 24.40094589 -15.35836328 24.40094589 -15.390625 21.45703125 C-15.35839844 20.38388672 -15.32617188 19.31074219 -15.29296875 18.20507812 C-15.27169922 16.52575195 -15.27169922 16.52575195 -15.25 14.8125 C-15.22035156 13.68134766 -15.19070313 12.55019531 -15.16015625 11.38476562 C-15.08939691 8.58977167 -15.03673024 5.79561472 -15 3 C-16.32 3.33 -17.64 3.66 -19 4 C-18.67 3.01 -18.34 2.02 -18 1 C-11.25 0 -11.25 0 -9 0 C-5.93109813 -1.53445094 -3.29905734 -0.54984289 0 0 Z " fill="#FFFFFF" transform="translate(353,159)"/>
<path d="M0 0 C0 0.99 0 1.98 0 3 C-2.01822917 2.90234375 -4.03645833 2.8046875 -6.0546875 2.70703125 C-7.01761719 2.85205078 -7.01761719 2.85205078 -8 3 C-10.98978117 7.48467176 -10.32924419 11.78808074 -10.3125 17.0625 C-10.32861328 18.08150391 -10.34472656 19.10050781 -10.36132812 20.15039062 C-10.36229492 21.60928711 -10.36229492 21.60928711 -10.36328125 23.09765625 C-10.36626221 23.98976807 -10.36924316 24.88187988 -10.37231445 25.80102539 C-10.24945068 26.52668701 -10.12658691 27.25234863 -10 28 C-9.01 28.66 -8.02 29.32 -7 30 C-11.29 30 -15.58 30 -20 30 C-18.68 29.01 -17.36 28.02 -16 27 C-15.35836328 24.40094589 -15.35836328 24.40094589 -15.390625 21.45703125 C-15.35839844 20.38388672 -15.32617188 19.31074219 -15.29296875 18.20507812 C-15.27169922 16.52575195 -15.27169922 16.52575195 -15.25 14.8125 C-15.22035156 13.68134766 -15.19070313 12.55019531 -15.16015625 11.38476562 C-15.08939691 8.58977167 -15.03673024 5.79561472 -15 3 C-16.32 3.33 -17.64 3.66 -19 4 C-18.67 3.01 -18.34 2.02 -18 1 C-11.25 0 -11.25 0 -9 0 C-5.93109813 -1.53445094 -3.29905734 -0.54984289 0 0 Z " fill="#FFFFFF" transform="translate(354,88)"/>
<path d="M0 0 C0 9.24 0 18.48 0 28 C1.65 28.33 3.3 28.66 5 29 C5 29.33 5 29.66 5 30 C0.71 30 -3.58 30 -8 30 C-6.68 29.34 -5.36 28.68 -4 28 C-4 19.75 -4 11.5 -4 3 C-4.99 3.33 -5.98 3.66 -7 4 C-6.67 3.01 -6.34 2.02 -6 1 C-4 0 -4 0 0 0 Z " fill="#FFFFFF" transform="translate(437,159)"/>
<path d="M0 0 C1.65 0 3.3 0 5 0 C5.5625 1.9375 5.5625 1.9375 6 4 C5 5 5 5 2.4375 5.0625 C1.2309375 5.0315625 1.2309375 5.0315625 0 5 C0 3.35 0 1.7 0 0 Z " fill="#FFFFFF" transform="translate(432,147)"/>
</svg>
